{
  "accessors": [
    {
      "bufferView": 2,
      "componentType": 5126,
      "count": 2444,
      "max": [
        255.0467071533203,
        255.0467071533203,
        895.3948974609375
      ],
      "min": [
        -255.04660034179688,
        -255.04660034179688,
        110.42289733886719
      ],
      "type": "VEC3"
    },
    {
      "bufferView": 2,
      "byteOffset": 29328,
      "componentType": 5126,
      "count": 2444,
      "max": [
        0.9890899062156677,
        0.9890899062156677,
        0.9998141527175903
      ],
      "min": [
        -0.9890899062156677,
        -0.9890899062156677,
        -0.9541193842887878
      ],
      "type": "VEC3"
    },
    {
      "bufferView": 1,
      "componentType": 5126,
      "count": 2444,
      "max": [
        0.9809160232543945,
        0.9833670258522034
      ],
      "min": [
        0.013698999769985676,
        0.013698999769985676
      ],
      "type": "VEC2"
    },
    {
      "bufferView": 0,
      "componentType": 5125,
      "count": 10464,
      "type": "SCALAR"
    }
  ],
  "asset": {
    "extras": {
      "author": "sarthcreations (https://sketchfab.com/SARTHCREATIONS)",
      "license": "CC-BY-4.0 (http://creativecommons.org/licenses/by/4.0/)",
      "source": "https://sketchfab.com/3d-models/paracute-free-c7eb6c770a0e409b946fe4ee34996308",
      "title": "PARACUTE FREE"
    },
    "generator": "Sketchfab-12.68.0",
    "version": "2.0"
  },
  "bufferViews": [
    {
      "buffer": 0,
      "byteLength": 41856,
      "name": "floatBufferViews",
      "target": 34963
    },
    {
      "buffer": 0,
      "byteLength": 19552,
      "byteOffset": 41856,
      "byteStride": 8,
      "name": "floatBufferViews",
      "target": 34962
    },
    {
      "buffer": 0,
      "byteLength": 58656,
      "byteOffset": 61408,
      "byteStride": 12,
      "name": "floatBufferViews",
      "target": 34962
    }
  ],
  "buffers": [
    {
      "byteLength": 120064,
      "uri": "scene.bin"
    }
  ],
  "materials": [
    {
      "doubleSided": true,
      "name": "initialShadingGroup",
      "pbrMetallicRoughness": {
        "metallicFactor": 0.0,
        "roughnessFactor": 0.6
      }
    }
  ],
  "meshes": [
    {
      "name": "Object_0",
      "primitives": [
        {
          "attributes": {
            "NORMAL": 1,
            "POSITION": 0,
            "TEXCOORD_0": 2
          },
          "indices": 3,
          "material": 0,
          "mode": 4
        }
      ]
    }
  ],
  "nodes": [
    {
      "children": [
        1
      ],
      "matrix": [
        0.014506390318274498,
        0.0,
        0.0,
        0.0,
        0.0,
        3.22106570710956e-18,
        -0.014506390318274498,
        0.0,
        0.0,
        0.014506390318274498,
        3.22106570710956e-18,
        0.0,
        0.0,
        0.0,
        0.0,
        1.0
      ],
      "name": "Sketchfab_model"
    },
    {
      "children": [
        2
      ],
      "name": "BRS_AirDrop_Chute.obj.cleaner.materialmerger.gles"
    },
    {
      "mesh": 0,
      "name": "Object_2"
    }
  ],
  "scene": 0,
  "scenes": [
    {
      "name": "Sketchfab_Scene",
      "nodes": [
        0
      ]
    }
  ]
}
